<svg width="34" height="34" viewBox="0 0 34 34" fill="none" xmlns="http://www.w3.org/2000/svg">
<path d="M18.9198 0.5V2.7728C21.1678 2.7728 23.2738 3.341 25.2379 4.4774C27.1072 5.59013 28.598 7.08165 29.7102 8.95198C30.846 10.917 31.4139 13.0241 31.4139 15.2732H33.6855C33.6855 12.5979 33.0112 10.1121 31.6624 7.81558C30.3609 5.59013 28.598 3.82634 26.3737 2.52421C24.0784 1.17474 21.5938 0.5 18.9198 0.5ZM7.17118 3.9092C6.53228 3.9092 5.9762 4.11044 5.50294 4.51291L1.847 8.24173L1.95349 8.1707C1.36191 8.66788 0.971475 9.28343 0.782171 10.0174C0.61653 10.7513 0.663856 11.4615 0.924149 12.1481C1.58671 13.9948 2.47407 15.8888 3.58623 17.8301C5.14799 20.5054 7.00553 22.9084 9.15887 25.0391C12.6137 28.5194 16.9085 31.2657 22.0434 33.278H22.0789C22.7651 33.5148 23.4513 33.5621 24.1375 33.4201C24.8474 33.278 25.4745 32.9703 26.0187 32.4968L29.6037 28.91C30.0769 28.4365 30.3136 27.8565 30.3136 27.1699C30.3136 26.4596 30.0769 25.8678 29.6037 25.3943L24.9539 20.7066C24.4806 20.2331 23.8891 19.9964 23.1792 19.9964C22.4693 19.9964 21.8777 20.2331 21.4045 20.7066L19.1683 22.9794C17.3699 22.1271 15.8082 21.0736 14.483 19.8188C13.1579 18.5404 12.1049 16.9896 11.324 15.1667L13.5957 12.8939C14.0926 12.373 14.3411 11.7575 14.3411 11.0472C14.3411 10.3133 14.0571 9.72142 13.4892 9.27159L13.5957 9.37813L8.83942 4.51291C8.36616 4.11044 7.81008 3.9092 7.17118 3.9092ZM18.9198 5.0456V7.3184C20.3633 7.3184 21.6884 7.67353 22.8952 8.38378C24.1257 9.09403 25.0959 10.0647 25.8058 11.2958C26.5157 12.5032 26.8706 13.829 26.8706 15.2732H29.1423C29.1423 13.4266 28.6808 11.7101 27.758 10.1239C26.8351 8.58502 25.6046 7.35391 24.0665 6.43059C22.4811 5.50726 20.7656 5.0456 18.9198 5.0456ZM7.17118 6.182C7.24216 6.182 7.32499 6.21751 7.41964 6.28854L12.0694 11.0472C12.0931 11.1419 12.0694 11.2248 11.9984 11.2958L8.62645 14.634L8.87491 15.3442L9.33634 16.3386C9.71495 17.1435 10.1527 17.9248 10.6496 18.6824C11.3359 19.7478 12.0931 20.6593 12.9213 21.4169C14.0334 22.5059 15.3704 23.5003 16.9322 24.3999C17.713 24.8497 18.3756 25.1812 18.9198 25.3943L19.6297 25.7139L23.0727 22.2692C23.12 22.2218 23.1555 22.1981 23.1792 22.1981C23.2028 22.1981 23.2383 22.2218 23.2857 22.2692L28.0774 27.0634C28.1247 27.1107 28.1484 27.1462 28.1484 27.1699C28.1484 27.1699 28.1247 27.1936 28.0774 27.2409L24.528 30.7567C24.0074 31.2065 23.4395 31.3249 22.8242 31.1118C17.997 29.2415 13.9743 26.6846 10.7561 23.4411C8.76843 21.4524 7.0292 19.1914 5.53843 16.6582C4.4736 14.8352 3.64539 13.0714 3.05382 11.3668V11.3313C2.95917 11.1182 2.94733 10.8697 3.01832 10.5856C3.08931 10.2778 3.21946 10.041 3.40876 9.8753L6.92271 6.28854C6.9937 6.21751 7.07652 6.182 7.17118 6.182ZM18.9198 9.5912V11.864C19.8664 11.864 20.6709 12.1955 21.3335 12.8584C21.996 13.5213 22.3273 14.3262 22.3273 15.2732H24.599C24.599 14.2552 24.3387 13.3082 23.8181 12.4322C23.3212 11.5562 22.6349 10.8697 21.7594 10.3725C20.8839 9.85163 19.9374 9.5912 18.9198 9.5912Z" fill="white"/>
</svg>
