<svg width="20" height="20" viewBox="0 0 20 20" fill="none" xmlns="http://www.w3.org/2000/svg">
<path d="M18 5.42342C17.4485 5.66396 16.8558 5.82648 16.2329 5.89994C16.8757 5.52145 17.3565 4.92573 17.5858 4.22398C16.9819 4.57697 16.321 4.82544 15.6317 4.95859C15.1682 4.47158 14.5543 4.14877 13.8852 4.0403C13.2162 3.93183 12.5295 4.04376 11.9318 4.35871C11.3339 4.67366 10.8586 5.17401 10.5793 5.78208C10.3002 6.39015 10.2328 7.07192 10.3877 7.72154C9.16404 7.66108 7.96695 7.34808 6.87416 6.80287C5.78136 6.25767 4.81725 5.49243 4.04443 4.55682C3.78019 5.0054 3.62825 5.52548 3.62825 6.07937C3.62794 6.578 3.75272 7.06899 3.99151 7.50878C4.23028 7.94857 4.57568 8.32356 4.99705 8.60049C4.50838 8.58518 4.03048 8.45524 3.60314 8.22147V8.26047C3.60309 8.95982 3.84892 9.63764 4.2989 10.1789C4.74887 10.7202 5.3753 11.0917 6.07187 11.2302C5.61855 11.3509 5.14328 11.3687 4.68193 11.2821C4.87847 11.8839 5.26129 12.4101 5.77683 12.7871C6.29236 13.1641 6.91478 13.373 7.55696 13.3846C6.46682 14.2268 5.12051 14.6836 3.7346 14.6816C3.4891 14.6816 3.24381 14.6675 3 14.6393C4.40677 15.5295 6.04436 16.0018 7.71682 16C13.3783 16 16.4734 11.3855 16.4734 7.38349C16.4734 7.25346 16.47 7.12215 16.4641 6.99212C17.0661 6.56369 17.5857 6.03315 17.9988 5.42537L18 5.42342Z" fill="white"/>
</svg>
