<svg width="26" height="26" viewBox="0 0 26 26" fill="none" xmlns="http://www.w3.org/2000/svg">
<path d="M13 0.890625C19.6895 0.890625 25.1094 6.31055 25.1094 13C25.1094 19.6895 19.6895 25.1094 13 25.1094C6.31055 25.1094 0.890625 19.6895 0.890625 13C0.890625 6.31055 6.31055 0.890625 13 0.890625ZM11.5889 7.90234L15.2754 11.4375H6.35938C5.70996 11.4375 5.1875 11.96 5.1875 12.6094V13.3906C5.1875 14.04 5.70996 14.5625 6.35938 14.5625H15.2754L11.5889 18.0977C11.1152 18.5518 11.1055 19.3086 11.5693 19.7725L12.1064 20.3047C12.5654 20.7637 13.3076 20.7637 13.7617 20.3047L20.2412 13.8301C20.7002 13.3711 20.7002 12.6289 20.2412 12.1748L13.7617 5.69043C13.3027 5.23145 12.5605 5.23145 12.1064 5.69043L11.5693 6.22266C11.1055 6.69141 11.1152 7.44824 11.5889 7.90234Z" fill="#0E2F65"/>
</svg>
