<svg width="20" height="20" viewBox="0 0 20 20" fill="none" xmlns="http://www.w3.org/2000/svg">
<path d="M6.13375 17H3.23125V7.65291H6.13375V17ZM4.68093 6.37788C3.75281 6.37788 3 5.60912 3 4.68097C3 4.23515 3.1771 3.80759 3.49233 3.49235C3.80757 3.1771 4.23512 3 4.68093 3C5.12675 3 5.5543 3.1771 5.86954 3.49235C6.18477 3.80759 6.36187 4.23515 6.36187 4.68097C6.36187 5.60912 5.60874 6.37788 4.68093 6.37788ZM16.9968 17H14.1006V12.4499C14.1006 11.3655 14.0788 9.97484 12.5916 9.97484C11.0825 9.97484 10.8512 11.1529 10.8512 12.3717V17H7.95187V7.65291H10.7356V8.92793H10.7762C11.1637 8.19354 12.1103 7.41853 13.5225 7.41853C16.46 7.41853 17 9.35294 17 11.8655V17H16.9968Z" fill="white"/>
</svg>
