<svg width="20" height="20" viewBox="0 0 20 20" fill="none" xmlns="http://www.w3.org/2000/svg">
<path fill-rule="evenodd" clip-rule="evenodd" d="M7.11409 3.042C7.86055 3.00764 8.09855 3 10 3C11.9015 3 12.1395 3.00827 12.8853 3.042C13.6311 3.07573 14.1402 3.19473 14.5856 3.36718C15.0521 3.54345 15.4753 3.819 15.8253 4.17536C16.1816 4.52473 16.4565 4.94727 16.6322 5.41436C16.8053 5.85982 16.9236 6.36891 16.958 7.11345C16.9924 7.86118 17 8.09918 17 10C17 11.9015 16.9917 12.1395 16.958 12.8859C16.9243 13.6305 16.8053 14.1395 16.6322 14.585C16.4565 15.0522 16.1812 15.4754 15.8253 15.8253C15.4753 16.1816 15.0521 16.4565 14.5856 16.6322C14.1402 16.8053 13.6311 16.9236 12.8865 16.958C12.1395 16.9924 11.9015 17 10 17C8.09855 17 7.86055 16.9917 7.11409 16.958C6.36955 16.9243 5.86045 16.8053 5.415 16.6322C4.94786 16.4565 4.52461 16.1812 4.17473 15.8253C3.81861 15.4757 3.54302 15.0527 3.36718 14.5856C3.19473 14.1402 3.07636 13.6311 3.042 12.8865C3.00764 12.1388 3 11.9008 3 10C3 8.09855 3.00827 7.86055 3.042 7.11473C3.07573 6.36891 3.19473 5.85982 3.36718 5.41436C3.54328 4.94732 3.81908 4.52429 4.17536 4.17473C4.52475 3.81868 4.94757 3.5431 5.41436 3.36718C5.85982 3.19473 6.36891 3.07636 7.11345 3.042H7.11409ZM12.8286 4.302C12.0905 4.26827 11.869 4.26127 10 4.26127C8.131 4.26127 7.90955 4.26827 7.17136 4.302C6.48855 4.33318 6.11818 4.44709 5.87127 4.54318C5.54482 4.67045 5.31127 4.82127 5.06627 5.06627C4.83403 5.29221 4.6553 5.56727 4.54318 5.87127C4.44709 6.11818 4.33318 6.48855 4.302 7.17136C4.26827 7.90955 4.26127 8.131 4.26127 10C4.26127 11.869 4.26827 12.0905 4.302 12.8286C4.33318 13.5115 4.44709 13.8818 4.54318 14.1287C4.65518 14.4323 4.834 14.7078 5.06627 14.9337C5.29218 15.166 5.56773 15.3448 5.87127 15.4568C6.11818 15.5529 6.48855 15.6668 7.17136 15.698C7.90955 15.7317 8.13036 15.7387 10 15.7387C11.8696 15.7387 12.0905 15.7317 12.8286 15.698C13.5115 15.6668 13.8818 15.5529 14.1287 15.4568C14.4552 15.3295 14.6887 15.1787 14.9337 14.9337C15.166 14.7078 15.3448 14.4323 15.4568 14.1287C15.5529 13.8818 15.6668 13.5115 15.698 12.8286C15.7317 12.0905 15.7387 11.869 15.7387 10C15.7387 8.131 15.7317 7.90955 15.698 7.17136C15.6668 6.48855 15.5529 6.11818 15.4568 5.87127C15.3295 5.54482 15.1787 5.31127 14.9337 5.06627C14.7078 4.83405 14.4327 4.65532 14.1287 4.54318C13.8818 4.44709 13.5115 4.33318 12.8286 4.302V4.302ZM9.10591 12.1579C9.60524 12.3658 10.1612 12.3938 10.679 12.2373C11.1967 12.0807 11.644 11.7493 11.9445 11.2996C12.245 10.8499 12.38 10.3098 12.3266 9.77161C12.2731 9.2334 12.0345 8.73044 11.6514 8.34864C11.4072 8.10458 11.1119 7.9177 10.7868 7.80146C10.4617 7.68522 10.1148 7.6425 9.77122 7.67639C9.42763 7.71028 9.09582 7.81993 8.79969 7.99745C8.50356 8.17496 8.25047 8.41593 8.05865 8.703C7.86682 8.99006 7.74103 9.31609 7.69033 9.65761C7.63963 9.99913 7.66528 10.3476 7.76543 10.6781C7.86559 11.0085 8.03776 11.3126 8.26955 11.5685C8.50134 11.8243 8.78698 12.0257 9.10591 12.1579ZM7.45582 7.45582C7.78992 7.12171 8.18657 6.85668 8.6231 6.67587C9.05963 6.49505 9.5275 6.40198 10 6.40198C10.4725 6.40198 10.9404 6.49505 11.3769 6.67587C11.8134 6.85668 12.2101 7.12171 12.5442 7.45582C12.8783 7.78992 13.1433 8.18657 13.3241 8.6231C13.505 9.05963 13.598 9.5275 13.598 10C13.598 10.4725 13.505 10.9404 13.3241 11.3769C13.1433 11.8134 12.8783 12.2101 12.5442 12.5442C11.8694 13.2189 10.9543 13.598 10 13.598C9.04575 13.598 8.13058 13.2189 7.45582 12.5442C6.78106 11.8694 6.40198 10.9543 6.40198 10C6.40198 9.04575 6.78106 8.13058 7.45582 7.45582V7.45582ZM14.396 6.93782C14.4788 6.85972 14.5451 6.7658 14.5909 6.66162C14.6368 6.55744 14.6612 6.44513 14.6629 6.33132C14.6646 6.21751 14.6434 6.10453 14.6006 5.99906C14.5578 5.89359 14.4943 5.79778 14.4138 5.7173C14.3333 5.63682 14.2375 5.5733 14.132 5.53051C14.0266 5.48772 13.9136 5.46653 13.7998 5.46819C13.686 5.46985 13.5736 5.49433 13.4695 5.54017C13.3653 5.58602 13.2714 5.6523 13.1933 5.73509C13.0414 5.89611 12.9582 6.10999 12.9614 6.33132C12.9647 6.55265 13.054 6.76401 13.2106 6.92054C13.3671 7.07706 13.5784 7.16642 13.7998 7.16964C14.0211 7.17287 14.235 7.08971 14.396 6.93782V6.93782Z" fill="white"/>
</svg>
